<?xml version="1.0" encoding="UTF-8" standalone="no"?>
<!-- Created with Inkscape (http://www.inkscape.org/) -->

<svg
   xmlns:dc="http://purl.org/dc/elements/1.1/"
   xmlns:cc="http://creativecommons.org/ns#"
   xmlns:rdf="http://www.w3.org/1999/02/22-rdf-syntax-ns#"
   xmlns:svg="http://www.w3.org/2000/svg"
   xmlns="http://www.w3.org/2000/svg"
   xmlns:sodipodi="http://sodipodi.sourceforge.net/DTD/sodipodi-0.dtd"
   xmlns:inkscape="http://www.inkscape.org/namespaces/inkscape"
   width="38mm"
   height="38mm"
   viewBox="0 0 38 38"
   version="1.1"
   id="svg8"
   inkscape:version="0.92.1 r15371"
   sodipodi:docname="ods_ixmaps.svg">
  <defs
     id="defs2" />
  <sodipodi:namedview
     id="base"
     pagecolor="#ffffff"
     bordercolor="#666666"
     borderopacity="1.0"
     inkscape:pageopacity="0.0"
     inkscape:pageshadow="2"
     inkscape:zoom="2.8"
     inkscape:cx="79.31345"
     inkscape:cy="76.942538"
     inkscape:document-units="mm"
     inkscape:current-layer="layer1"
     showgrid="false"
     inkscape:snap-global="false"
     fit-margin-top="0"
     fit-margin-left="0"
     fit-margin-right="0"
     fit-margin-bottom="0"
     inkscape:window-width="1920"
     inkscape:window-height="1027"
     inkscape:window-x="1272"
     inkscape:window-y="-8"
     inkscape:window-maximized="1" />
  <metadata
     id="metadata5">
    <rdf:RDF>
      <cc:Work
         rdf:about="">
        <dc:format>image/svg+xml</dc:format>
        <dc:type
           rdf:resource="http://purl.org/dc/dcmitype/StillImage" />
        <dc:title></dc:title>
      </cc:Work>
    </rdf:RDF>
  </metadata>
  <g
     inkscape:label="Livello 1"
     inkscape:groupmode="layer"
     id="layer1"
     transform="translate(-131.26513,-164.21991)">
    <circle
       style="opacity:1;vector-effect:none;fill:none;fill-opacity:1;stroke:none;stroke-width:0.53848052;stroke-linecap:butt;stroke-linejoin:miter;stroke-miterlimit:4;stroke-dasharray:none;stroke-dashoffset:0;stroke-opacity:1"
       id="path984"
       cx="156.72087"
       cy="178.50142"
       r="29.464779" />
    <g
       id="g4565"
       transform="translate(-1,1)">
      <g
         transform="translate(-5.8533838,2.0336894)"
         style="fill:#333333"
         id="g982">
        <path
           inkscape:connector-curvature="0"
           id="path959"
           style="font-style:normal;font-variant:normal;font-weight:bold;font-stretch:normal;font-size:medium;line-height:125%;font-family:Trueno;-inkscape-font-specification:'Trueno Bold';letter-spacing:0px;word-spacing:0px;fill:#333333;fill-opacity:1;stroke:none;stroke-width:0.26458335px;stroke-linecap:butt;stroke-linejoin:miter;stroke-opacity:1"
           d="m 141.47129,168.70441 4.47299,-0.38568 1.24038,13.61281 -4.473,0.38568 z m -0.48286,-5.29927 4.47299,-0.38569 0.32339,3.54905 -4.473,0.38569 z" />
        <path
           inkscape:connector-curvature="0"
           id="path961"
           style="font-style:normal;font-variant:normal;font-weight:bold;font-stretch:normal;font-size:medium;line-height:125%;font-family:Trueno;-inkscape-font-specification:'Trueno Bold';letter-spacing:0px;word-spacing:0px;fill:#333333;fill-opacity:1;stroke:none;stroke-width:0.26458335px;stroke-linecap:butt;stroke-linejoin:miter;stroke-opacity:1"
           d="m 161.25906,171.38363 7.31599,8.70351 -5.01025,0.43202 -4.92536,-5.82271 -3.75824,6.57145 -5.03524,0.43417 5.62819,-9.81963 -7.03177,-8.34829 5.02275,-0.43308 4.61836,5.49393 3.54048,-6.19743 5.04773,-0.43525 z" />
        <g
           aria-label="Maps"
           transform="matrix(1.0138942,0,0,0.98629623,22.111607,-28.726191)"
           style="font-style:normal;font-variant:normal;font-weight:normal;font-stretch:normal;font-size:11.13544369px;line-height:125%;font-family:Trueno;-inkscape-font-specification:Trueno;letter-spacing:0px;word-spacing:0px;fill:#333333;fill-opacity:1;stroke:none;stroke-width:0.26458332px;stroke-linecap:butt;stroke-linejoin:miter;stroke-opacity:1"
           id="text62-8">
          <path
             d="m 117.38855,214.49295 h 2.66424 l 1.84866,4.34435 1.85953,-4.34435 h 2.6588 v 8.11778 h -1.97915 v -5.93745 l -1.8704,4.37697 h -1.32669 l -1.8704,-4.37697 v 5.93745 h -1.98459 z"
             style="font-style:normal;font-variant:normal;font-weight:bold;font-stretch:normal;font-family:Trueno;-inkscape-font-specification:'Trueno Bold';fill:#333333;stroke-width:0.26458332px"
             id="path966"
             inkscape:connector-curvature="0" />
          <path
             d="m 131.12299,219.87037 q -0.60897,0 -0.9189,0.20661 -0.30448,0.20662 -0.30448,0.60897 0,0.36974 0.24467,0.58179 0.25012,0.20661 0.69053,0.20661 0.54916,0 0.92433,-0.39148 0.37517,-0.39692 0.37517,-0.98957 v -0.22293 z m 2.97416,-0.73403 v 3.47439 h -1.96284 v -0.90258 q -0.39148,0.5546 -0.88083,0.81015 -0.48935,0.25011 -1.19075,0.25011 -0.94608,0 -1.53874,-0.54916 -0.58722,-0.55459 -0.58722,-1.43543 0,-1.07113 0.73403,-1.57135 0.73946,-0.50023 2.31626,-0.50023 h 1.14725 V 218.56 q 0,-0.46217 -0.36429,-0.67422 -0.3643,-0.21749 -1.13638,-0.21749 -0.62529,0 -1.16357,0.12506 -0.53829,0.12505 -1.00045,0.37517 v -1.48437 q 0.62528,-0.15224 1.256,-0.22836 0.63072,-0.0816 1.26144,-0.0816 1.64748,0 2.37606,0.65247 0.73403,0.64703 0.73403,2.10964 z"
             style="font-style:normal;font-variant:normal;font-weight:bold;font-stretch:normal;font-family:Trueno;-inkscape-font-specification:'Trueno Bold';fill:#333333;stroke-width:0.26458332px"
             id="path968"
             inkscape:connector-curvature="0" />
          <path
             d="m 137.86515,221.7299 v 3.19709 h -1.94653 v -8.40595 h 1.94653 v 0.8917 q 0.40235,-0.53285 0.8917,-0.78296 0.48935,-0.25555 1.12551,-0.25555 1.12551,0 1.84866,0.89714 0.72315,0.89171 0.72315,2.29995 0,1.40824 -0.72315,2.30539 -0.72315,0.8917 -1.84866,0.8917 -0.63616,0 -1.12551,-0.25011 -0.48935,-0.25555 -0.8917,-0.7884 z m 1.29406,-3.94199 q -0.62528,0 -0.96239,0.46217 -0.33167,0.45672 -0.33167,1.32124 0,0.86452 0.33167,1.32669 0.33711,0.45672 0.96239,0.45672 0.62528,0 0.95151,-0.45672 0.33167,-0.45673 0.33167,-1.32669 0,-0.86995 -0.33167,-1.32668 -0.32623,-0.45673 -0.95151,-0.45673 z"
             style="font-style:normal;font-variant:normal;font-weight:bold;font-stretch:normal;font-family:Trueno;-inkscape-font-specification:'Trueno Bold';fill:#333333;stroke-width:0.26458332px"
             id="path970"
             inkscape:connector-curvature="0" />
          <path
             d="m 148.65805,216.71134 v 1.47893 q -0.62528,-0.26099 -1.20707,-0.39148 -0.58178,-0.1305 -1.09832,-0.1305 -0.55459,0 -0.82646,0.14137 -0.26642,0.13593 -0.26642,0.4241 0,0.23381 0.20118,0.35886 0.20661,0.12506 0.73402,0.18487 l 0.34255,0.0489 q 1.49524,0.19031 2.01177,0.62528 0.51654,0.43498 0.51654,1.36475 0,0.97326 -0.71771,1.46261 -0.71772,0.48935 -2.14227,0.48935 -0.60354,0 -1.25057,-0.0979 -0.64159,-0.0924 -1.32124,-0.28273 v -1.47893 q 0.58178,0.28274 1.19075,0.4241 0.61441,0.14137 1.24513,0.14137 0.57091,0 0.85908,-0.15768 0.28817,-0.15768 0.28817,-0.4676 0,-0.26099 -0.20118,-0.38604 -0.19574,-0.1305 -0.78839,-0.20118 l -0.34255,-0.0435 q -1.2995,-0.16311 -1.82147,-0.60353 -0.52197,-0.44042 -0.52197,-1.33756 0,-0.96782 0.66334,-1.43543 0.66334,-0.4676 2.03352,-0.4676 0.53829,0 1.13094,0.0816 0.59266,0.0816 1.28863,0.25555 z"
             style="font-style:normal;font-variant:normal;font-weight:bold;font-stretch:normal;font-family:Trueno;-inkscape-font-specification:'Trueno Bold';fill:#333333;stroke-width:0.26458332px"
             id="path972"
             inkscape:connector-curvature="0" />
        </g>
      </g>
      <g
         transform="translate(-4.4701848,1.072656)"
         id="g1054">
        <g
           id="g904"
           transform="translate(12.38715,-3.6047041)">
          <rect
             ry="0.80319941"
             y="197.68419"
             x="151.20338"
             height="5.2916698"
             width="8.2748642"
             id="rect878"
             style="opacity:1;vector-effect:none;fill:#ff0000;fill-opacity:1;stroke:none;stroke-width:0.53552085;stroke-linecap:butt;stroke-linejoin:miter;stroke-miterlimit:4;stroke-dasharray:none;stroke-dashoffset:0;stroke-opacity:1" />
          <g
             id="g1043"
             transform="translate(0.2638515,-1.234436e-6)">
            <path
               d="m 153.8394,200.19728 v -0.86118 h 0.26148 v 2.21123 h -0.26148 v -0.23875 q -0.0824,0.14211 -0.2089,0.21175 -0.12506,0.0682 -0.30128,0.0682 -0.28848,0 -0.47038,-0.23022 -0.18048,-0.23022 -0.18048,-0.60539 0,-0.37517 0.18048,-0.60539 0.1819,-0.23021 0.47038,-0.23021 0.17622,0 0.30128,0.0696 0.12648,0.0682 0.2089,0.21032 z m -0.89103,0.55565 q 0,0.28849 0.11795,0.45333 0.11937,0.16343 0.32685,0.16343 0.20748,0 0.32686,-0.16343 0.11937,-0.16484 0.11937,-0.45333 0,-0.28848 -0.11937,-0.45191 -0.11938,-0.16484 -0.32686,-0.16484 -0.20748,0 -0.32685,0.16484 -0.11795,0.16343 -0.11795,0.45191 z"
               style="font-size:medium;font-family:'DejaVu Sans', Verdana, Geneva, sans-serif;text-anchor:middle;fill:#010101;fill-opacity:0.3;stroke-width:0.02645833"
               id="path990"
               inkscape:connector-curvature="0" />
            <path
               d="m 155.21197,200.13902 q -0.21032,0 -0.33254,0.16485 -0.12221,0.16342 -0.12221,0.44906 0,0.28564 0.12079,0.45049 0.12221,0.16343 0.33396,0.16343 0.2089,0 0.33111,-0.16485 0.12222,-0.16485 0.12222,-0.44907 0,-0.2828 -0.12222,-0.44764 -0.12221,-0.16627 -0.33111,-0.16627 z m 0,-0.22169 q 0.34106,0 0.53575,0.22169 0.19469,0.22169 0.19469,0.61391 0,0.39081 -0.19469,0.61392 -0.19469,0.22169 -0.53575,0.22169 -0.34249,0 -0.53718,-0.22169 -0.19327,-0.22311 -0.19327,-0.61392 0,-0.39222 0.19327,-0.61391 0.19469,-0.22169 0.53718,-0.22169 z"
               style="font-size:medium;font-family:'DejaVu Sans', Verdana, Geneva, sans-serif;text-anchor:middle;fill:#010101;fill-opacity:0.3;stroke-width:0.02645833"
               id="path992"
               inkscape:connector-curvature="0" />
            <path
               d="m 157.47557,200.0168 v 0.24443 q -0.11085,-0.0611 -0.22312,-0.091 -0.11084,-0.0313 -0.22453,-0.0313 -0.25438,0 -0.39507,0.162 -0.14068,0.16059 -0.14068,0.45191 0,0.29133 0.14068,0.45333 0.14069,0.16059 0.39507,0.16059 0.11369,0 0.22453,-0.0298 0.11227,-0.0313 0.22312,-0.0924 v 0.24159 q -0.10943,0.0512 -0.22738,0.0767 -0.11653,0.0256 -0.24869,0.0256 -0.35954,0 -0.57128,-0.22595 -0.21175,-0.22596 -0.21175,-0.60966 0,-0.38938 0.21317,-0.61249 0.21458,-0.22311 0.58691,-0.22311 0.1208,0 0.2359,0.0256 0.11511,0.0241 0.22312,0.0739 z"
               style="font-size:medium;font-family:'DejaVu Sans', Verdana, Geneva, sans-serif;text-anchor:middle;fill:#010101;fill-opacity:0.3;stroke-width:0.02645833"
               id="path994"
               inkscape:connector-curvature="0" />
            <path
               d="m 153.8394,199.9327 v -0.86119 h 0.26148 v 2.21124 H 153.8394 V 201.044 q -0.0824,0.14211 -0.2089,0.21175 -0.12506,0.0682 -0.30128,0.0682 -0.28848,0 -0.47038,-0.23022 -0.18048,-0.23022 -0.18048,-0.60539 0,-0.37517 0.18048,-0.60539 0.1819,-0.23022 0.47038,-0.23022 0.17622,0 0.30128,0.0696 0.12648,0.0682 0.2089,0.21032 z m -0.89103,0.55565 q 0,0.28848 0.11795,0.45333 0.11937,0.16343 0.32685,0.16343 0.20748,0 0.32686,-0.16343 0.11937,-0.16485 0.11937,-0.45333 0,-0.28848 -0.11937,-0.45191 -0.11938,-0.16485 -0.32686,-0.16485 -0.20748,0 -0.32685,0.16485 -0.11795,0.16343 -0.11795,0.45191 z"
               id="path999"
               inkscape:connector-curvature="0"
               style="font-size:medium;font-family:'DejaVu Sans', Verdana, Geneva, sans-serif;text-anchor:middle;fill:#ffffff;stroke-width:0.02645833" />
            <path
               d="m 155.21197,199.87443 q -0.21032,0 -0.33254,0.16485 -0.12221,0.16343 -0.12221,0.44907 0,0.28564 0.12079,0.45049 0.12221,0.16343 0.33396,0.16343 0.2089,0 0.33111,-0.16485 0.12222,-0.16485 0.12222,-0.44907 0,-0.2828 -0.12222,-0.44765 -0.12221,-0.16627 -0.33111,-0.16627 z m 0,-0.22169 q 0.34106,0 0.53575,0.22169 0.19469,0.2217 0.19469,0.61392 0,0.3908 -0.19469,0.61392 -0.19469,0.22169 -0.53575,0.22169 -0.34249,0 -0.53718,-0.22169 -0.19327,-0.22312 -0.19327,-0.61392 0,-0.39222 0.19327,-0.61392 0.19469,-0.22169 0.53718,-0.22169 z"
               id="path1001"
               inkscape:connector-curvature="0"
               style="font-size:medium;font-family:'DejaVu Sans', Verdana, Geneva, sans-serif;text-anchor:middle;fill:#ffffff;stroke-width:0.02645833" />
            <path
               d="m 157.47557,199.75222 v 0.24443 q -0.11085,-0.0611 -0.22312,-0.0909 -0.11084,-0.0313 -0.22453,-0.0313 -0.25438,0 -0.39507,0.16201 -0.14068,0.16058 -0.14068,0.45191 0,0.29133 0.14068,0.45333 0.14069,0.16059 0.39507,0.16059 0.11369,0 0.22453,-0.0299 0.11227,-0.0313 0.22312,-0.0924 v 0.24159 q -0.10943,0.0512 -0.22738,0.0767 -0.11653,0.0256 -0.24869,0.0256 -0.35954,0 -0.57128,-0.22596 -0.21175,-0.22595 -0.21175,-0.60965 0,-0.38938 0.21317,-0.61249 0.21458,-0.22312 0.58691,-0.22312 0.1208,0 0.2359,0.0256 0.11511,0.0242 0.22312,0.0739 z"
               id="path1003"
               inkscape:connector-curvature="0"
               style="font-size:medium;font-family:'DejaVu Sans', Verdana, Geneva, sans-serif;text-anchor:middle;fill:#ffffff;stroke-width:0.02645833" />
          </g>
        </g>
      </g>
    </g>
  </g>
</svg>
